<?xml version="1.0" standalone="no"?>
<!DOCTYPE svg PUBLIC "-//W3C//DTD SVG 20010904//EN"
 "http://www.w3.org/TR/2001/REC-SVG-20010904/DTD/svg10.dtd">
<svg version="1.0" xmlns="http://www.w3.org/2000/svg"
 width="236.000000pt" height="236.000000pt" viewBox="0 0 236.000000 236.000000"
 preserveAspectRatio="xMidYMid meet">

<g transform="translate(0.000000,236.000000) scale(0.100000,-0.100000)"
fill="#000000" stroke="none">
<path d="M1030 2351 c-260 -39 -481 -146 -664 -321 -362 -348 -463 -866 -261
-1333 106 -244 346 -484 592 -591 172 -75 292 -100 483 -100 199 0 343 32 511
114 338 164 576 476 650 850 17 84 17 336 0 420 -93 472 -439 831 -906 940
-100 24 -312 34 -405 21z m223 -626 c105 -22 206 -75 279 -148 l63 -62 -255
-5 c-233 -5 -259 -7 -300 -26 -65 -31 -121 -84 -155 -145 -24 -45 -30 -69 -33
-140 -5 -99 5 -137 53 -210 l34 -50 -27 -10 c-31 -12 -221 -59 -239 -59 -16 0
-59 91 -78 165 -18 69 -20 182 -4 257 38 182 191 354 366 412 120 39 190 44
296 21z m855 -152 c15 -11 28 -30 30 -42 3 -20 0 -21 -81 -21 -56 0 -95 5
-113 15 -37 19 -135 19 -244 0 -172 -30 -80 17 105 54 85 17 107 19 193 17 65
-2 88 -7 110 -23z m-527 -309 c-34 -26 -63 -45 -65 -43 -2 2 -8 23 -13 47
l-11 42 76 0 76 0 -63 -46z m179 5 c-44 -40 -231 -169 -243 -169 -4 0 -7 13
-7 30 0 24 9 36 58 69 31 21 75 55 97 75 35 30 47 35 90 35 l50 0 -45 -40z
m224 30 c-24 -39 -300 -222 -498 -329 l-78 -43 35 49 c52 71 60 78 192 161 66
41 145 97 175 123 53 47 57 49 118 50 43 0 61 -3 56 -11z m-1406 -269 c-2 -6
-37 -38 -77 -73 -79 -66 -135 -134 -146 -179 -11 -41 27 -73 97 -82 101 -13
366 47 565 129 49 19 79 25 140 25 l78 -1 -36 -19 c-91 -48 -396 -156 -549
-195 -247 -62 -417 -54 -436 21 -16 63 81 183 248 310 94 70 124 87 116 64z
m1083 -80 c-16 -39 -48 -95 -71 -124 -41 -54 -131 -131 -185 -158 -138 -71
-337 -77 -485 -16 l-35 14 50 19 c208 76 482 200 645 293 58 33 106 57 108 52
2 -5 -10 -41 -27 -80z m-1095 -9 c-66 -95 -6 -134 162 -105 48 8 125 26 171
40 71 22 88 24 113 13 16 -6 25 -15 21 -20 -17 -16 -219 -80 -313 -99 -110
-22 -216 -26 -255 -8 -58 26 -37 94 57 185 66 62 89 59 44 -6z"/>
</g>
</svg>
